<?xml version="1.0" encoding="UTF-8" standalone="no"?>
<svg width="38px" height="53px" viewBox="0 0 38 53" version="1.1" xmlns="http://www.w3.org/2000/svg" xmlns:xlink="http://www.w3.org/1999/xlink">
    <!-- Generator: Sketch 3.7.2 (28276) - http://www.bohemiancoding.com/sketch -->
    <title>Fill 1</title>
    <desc>Created with Sketch.</desc>
    <defs></defs>
    <g id="Page-1" stroke="none" stroke-width="1" fill="none" fill-rule="evenodd">
        <g id="Desktop-HD" transform="translate(-62.000000, -17.000000)" fill="#87D852">
            <g id="Page-1" transform="translate(62.000000, 17.000000)">
                <g id="Group-3" transform="translate(0.000000, 0.423000)">
                    <path d="M21.111853,30.7268047 L21.111853,23.3122964 C21.111853,22.0435405 20.0867934,21.0142594 18.8165024,21.0142594 C17.5492815,21.0142594 16.5215355,22.0435405 16.5215355,23.3122964 L16.5215355,30.7268047 C10.4345005,29.6418764 5.82000526,24.3292968 5.82000526,17.9344752 C5.82000526,11.5400375 10.4345005,6.22784159 16.5215355,5.14252951 L16.5215355,12.5581891 C16.5215355,13.82541 17.5492815,14.8535398 18.8165024,14.8535398 C20.0867934,14.8535398 21.111853,13.82541 21.111853,12.5581891 L21.111853,5.14252951 C27.1981205,6.22784159 31.8183723,11.5400375 31.8183723,17.9344752 C31.8183723,24.3292968 27.1981205,29.6418764 21.111853,30.7268047 M18.8165024,0.221399061 C8.473033,0.221399061 0.0856582949,8.60762245 0.0856582949,18.9510918 C0.0856582949,34.6163514 15.950864,52.2173656 18.8165024,52.2173656 C21.6042347,52.2173656 37.5500329,34.2932139 37.5500329,18.9510918 C37.5500329,8.60762245 29.1653446,0.221399061 18.8165024,0.221399061" id="Fill-1"></path>
                </g>
            </g>
        </g>
    </g>
</svg>